<svg width="32" height="30" viewBox="0 0 32 30" fill="none" xmlns="http://www.w3.org/2000/svg">
<mask id="mask0_296_582" style="mask-type:luminance" maskUnits="userSpaceOnUse" x="4" y="0" width="22" height="28">
<path d="M4.36365 3.55105L4.69931 4.25772C5.31765 1.21906 8.95698 1.57239 8.95698 1.57239C13.1793 1.94339 16.96 6.87239 18.9916 10.0701C22.154 15.052 24.2916 20.9704 24.3976 26.924C24.3976 27.03 24.486 27.0477 24.5566 27.0124C24.698 26.9064 24.8393 26.818 24.963 26.712C25.122 26.5884 25.2986 26.447 25.4576 26.3234C25.5636 26.235 25.6873 26.129 25.7933 26.0407C25.864 25.97 25.917 25.864 25.917 25.6874C25.7403 19.239 23.7793 12.7907 19.7513 7.70272C17.755 5.17639 14.1156 1.67839 10.4586 0.971721C10.4586 0.971721 9.96398 0.865723 9.23965 0.865723C7.89698 0.883389 5.70631 1.27206 4.36365 3.55105Z" fill="white"/>
</mask>
<g mask="url(#mask0_296_582)">
<path d="M25.9346 0.883789H4.36365V27.0834H25.9346V0.883789Z" fill="url(#paint0_linear_296_582)"/>
</g>
<mask id="mask1_296_582" style="mask-type:luminance" maskUnits="userSpaceOnUse" x="0" y="15" width="22" height="15">
<path d="M0.0706256 16.218C1.05996 23.9207 7.63196 29.8567 15.6173 29.8567C17.7726 29.8567 19.8043 29.4326 21.6769 28.6376C21.9066 28.5316 21.8889 28.461 21.7653 28.4257C12.084 28.62 3.56862 22.5427 0.158959 15.9C0.141292 15.8823 0.123622 15.8823 0.105956 15.8823C0.0529557 15.9 0.0529589 16.0413 0.0706256 16.218Z" fill="white"/>
</mask>
<g mask="url(#mask1_296_582)">
<path d="M21.8887 15.9004H0.0527344V29.8571H21.8887V15.9004Z" fill="url(#paint1_linear_296_582)"/>
</g>
<mask id="mask2_296_582" style="mask-type:luminance" maskUnits="userSpaceOnUse" x="0" y="0" width="31" height="13">
<path d="M5.52967 3.58633L5.49433 3.62167C5.49433 3.62167 3.58633 4.99967 2.26134 6.85466C0.936336 8.70966 0.371004 10.4587 0.159004 11.4833C0.0706709 11.9603 0.0176667 12.296 0 12.508V12.7377C0 12.7553 0 12.773 0 12.773V12.7907C0 12.8613 0.0353376 12.8967 0.0706709 12.9143C0.159004 12.9673 0.406335 12.826 0.565335 12.7377C0.689002 12.667 1.113 12.455 1.484 12.296C2.66767 11.7837 4.01033 11.3597 5.406 11.0593C5.33533 10.9357 5.22933 10.8297 5.15867 10.706C4.59333 9.858 4.15167 8.86866 3.90433 7.93233C2.915 8.56833 1.97867 9.328 1.09534 10.229C4.89367 1.60767 22.048 -4.15167 30.5633 10.2997C30.6517 10.441 30.74 10.441 30.74 10.3173C30.74 10.2643 30.7223 10.1937 30.7223 10.123C30.7047 10.07 30.687 9.99933 30.6693 9.94633C30.581 9.66366 30.2807 8.88633 30.051 8.39166C27.242 2.63233 21.8183 0 16.2887 0C12.4727 0 8.60367 1.25433 5.52967 3.58633Z" fill="white"/>
</mask>
<g mask="url(#mask2_296_582)">
<path d="M30.7577 -4.16931H0.0177002V12.9673H30.7577V-4.16931Z" fill="url(#paint2_linear_296_582)"/>
</g>
<mask id="mask3_296_582" style="mask-type:luminance" maskUnits="userSpaceOnUse" x="3" y="1" width="27" height="22">
<path d="M6.81925 1.802C6.23625 1.97867 5.67092 2.24367 5.08792 2.63234C4.99959 2.72067 4.91125 2.79134 4.82292 2.87967C3.00325 5.141 3.56859 8.28567 5.15859 10.6883C7.04892 13.5327 10.3172 15.8117 13.2499 17.4723C16.3769 19.239 19.7512 20.5817 23.2316 21.4297C24.8746 21.8183 26.3409 21.9067 28.0192 22.0303C28.2666 22.048 28.5139 22.048 28.7789 22.0657C29.0262 22.0657 29.2029 21.9597 29.2912 21.8007C29.3619 21.677 29.5032 21.412 29.5032 21.412C29.5562 21.3237 29.8566 20.67 29.9626 20.4757C24.3622 20.2283 18.9916 17.7727 14.2039 15.0343C11.6423 13.5503 8.92158 12.0133 6.92525 9.78733C5.54725 8.25033 4.41659 6.13033 4.73459 4.06333C4.94659 3.16234 5.72392 2.19067 6.81925 1.802Z" fill="white"/>
</mask>
<g mask="url(#mask3_296_582)">
<path d="M29.9448 1.802H3.00317V22.048H29.9448V1.802Z" fill="url(#paint3_linear_296_582)"/>
</g>
<mask id="mask4_296_582" style="mask-type:luminance" maskUnits="userSpaceOnUse" x="5" y="5" width="27" height="17">
<path d="M5.21167 7.17262C5.618 8.12662 6.23634 9.02761 6.90767 9.76961C7.19034 10.0876 7.526 10.4233 7.80867 10.6706C16.0413 9.76962 26.0407 12.7906 29.1147 21.9596C29.203 21.9066 29.2737 21.8359 29.309 21.7653C30.5457 19.5216 31.27 16.9423 31.27 14.2039C31.27 14.1509 31.27 14.0979 31.27 14.0626C31.2523 13.7269 30.9873 13.1263 30.528 12.5609C26.818 8.42695 20.1223 5.24695 13.4973 5.24695C10.6353 5.24695 7.80867 5.82995 5.21167 7.17262Z" fill="white"/>
</mask>
<g mask="url(#mask4_296_582)">
<path d="M31.2523 5.24695H5.21167V21.9773H31.2523V5.24695Z" fill="url(#paint4_linear_296_582)"/>
</g>
<defs>
<linearGradient id="paint0_linear_296_582" x1="4.36952" y1="13.9794" x2="25.949" y2="13.9794" gradientUnits="userSpaceOnUse">
<stop stop-color="#E6E1DB"/>
<stop offset="0.3846" stop-color="#E6E1DB"/>
<stop offset="1" stop-color="#715F4E"/>
</linearGradient>
<linearGradient id="paint1_linear_296_582" x1="20.7868" y1="22.8739" x2="-0.91822" y2="22.8739" gradientUnits="userSpaceOnUse">
<stop stop-color="#FCCF00"/>
<stop offset="0.6209" stop-color="#E50020"/>
<stop offset="1" stop-color="#80167D"/>
</linearGradient>
<linearGradient id="paint2_linear_296_582" x1="0.0115876" y1="4.40335" x2="30.7569" y2="4.40335" gradientUnits="userSpaceOnUse">
<stop stop-color="#FCCF00"/>
<stop offset="0.6209" stop-color="#E50020"/>
<stop offset="1" stop-color="#80167D"/>
</linearGradient>
<linearGradient id="paint3_linear_296_582" x1="3.69016" y1="11.9354" x2="29.9553" y2="11.9354" gradientUnits="userSpaceOnUse">
<stop stop-color="#E6E1DB"/>
<stop offset="0.3846" stop-color="#E6E1DB"/>
<stop offset="1" stop-color="#715F4E"/>
</linearGradient>
<linearGradient id="paint4_linear_296_582" x1="0.0638361" y1="13.6081" x2="31.068" y2="13.6081" gradientUnits="userSpaceOnUse">
<stop stop-color="#FCCF00"/>
<stop offset="0.6209" stop-color="#E50020"/>
<stop offset="1" stop-color="#80167D"/>
</linearGradient>
</defs>
</svg>
