<svg width="140" height="30" viewBox="0 0 140 30" fill="none" xmlns="http://www.w3.org/2000/svg">
<mask id="mask0_66_1797" style="mask-type:luminance" maskUnits="userSpaceOnUse" x="4" y="0" width="22" height="28">
<path d="M4.36377 3.55099L4.69943 4.25766C5.31777 1.21899 8.9571 1.57233 8.9571 1.57233C13.1794 1.94333 16.9601 6.87232 18.9918 10.07C22.1541 15.052 24.2918 20.9703 24.3978 26.924C24.3978 27.03 24.4861 27.0476 24.5568 27.0123C24.6981 26.9063 24.8394 26.818 24.9631 26.712C25.1221 26.5883 25.2988 26.447 25.4578 26.3233C25.5638 26.235 25.6874 26.129 25.7934 26.0406C25.8641 25.97 25.9171 25.864 25.9171 25.6873C25.7404 19.239 23.7794 12.7907 19.7514 7.70266C17.7551 5.17633 14.1158 1.67833 10.4588 0.97166C10.4588 0.97166 9.9641 0.865662 9.23977 0.865662C7.8971 0.883328 5.70644 1.27199 4.36377 3.55099Z" fill="white"/>
</mask>
<g mask="url(#mask0_66_1797)">
<path d="M25.9348 0.883713H4.36377V27.0834H25.9348V0.883713Z" fill="url(#paint0_linear_66_1797)"/>
</g>
<mask id="mask1_66_1797" style="mask-type:luminance" maskUnits="userSpaceOnUse" x="0" y="15" width="22" height="15">
<path d="M0.0706256 16.218C1.05996 23.9207 7.63196 29.8567 15.6173 29.8567C17.7726 29.8567 19.8043 29.4326 21.6769 28.6376C21.9066 28.5316 21.8889 28.461 21.7653 28.4257C12.084 28.62 3.56862 22.5427 0.158959 15.9C0.141292 15.8823 0.123622 15.8823 0.105956 15.8823C0.0529557 15.9 0.0529589 16.0413 0.0706256 16.218Z" fill="white"/>
</mask>
<g mask="url(#mask1_66_1797)">
<path d="M21.8887 15.9004H0.0527344V29.857H21.8887V15.9004Z" fill="url(#paint1_linear_66_1797)"/>
</g>
<mask id="mask2_66_1797" style="mask-type:luminance" maskUnits="userSpaceOnUse" x="0" y="0" width="31" height="13">
<path d="M5.52967 3.58633L5.49433 3.62167C5.49433 3.62167 3.58633 4.99967 2.26134 6.85466C0.936336 8.70966 0.371004 10.4587 0.159004 11.4833C0.0706709 11.9603 0.0176667 12.296 0 12.508V12.7377C0 12.7553 0 12.773 0 12.773V12.7907C0 12.8613 0.0353376 12.8967 0.0706709 12.9143C0.159004 12.9673 0.406335 12.826 0.565335 12.7377C0.689002 12.667 1.113 12.455 1.484 12.296C2.66767 11.7837 4.01033 11.3597 5.406 11.0593C5.33533 10.9357 5.22933 10.8297 5.15867 10.706C4.59333 9.858 4.15167 8.86866 3.90433 7.93233C2.915 8.56833 1.97867 9.328 1.09534 10.229C4.89367 1.60767 22.048 -4.15167 30.5633 10.2997C30.6517 10.441 30.74 10.441 30.74 10.3173C30.74 10.2643 30.7223 10.1937 30.7223 10.123C30.7047 10.07 30.687 9.99933 30.6693 9.94633C30.581 9.66366 30.2807 8.88633 30.051 8.39166C27.242 2.63233 21.8183 0 16.2887 0C12.4727 0 8.60367 1.25433 5.52967 3.58633Z" fill="white"/>
</mask>
<g mask="url(#mask2_66_1797)">
<path d="M30.7576 -4.16933H0.0175781V12.9673H30.7576V-4.16933Z" fill="url(#paint2_linear_66_1797)"/>
</g>
<mask id="mask3_66_1797" style="mask-type:luminance" maskUnits="userSpaceOnUse" x="3" y="1" width="27" height="22">
<path d="M6.81925 1.80199C6.23625 1.97865 5.67092 2.24366 5.08792 2.63232C4.99959 2.72066 4.91125 2.79132 4.82292 2.87965C3.00325 5.14099 3.56859 8.28565 5.15859 10.6883C7.04892 13.5326 10.3172 15.8116 13.2499 17.4723C16.3769 19.239 19.7512 20.5816 23.2316 21.4296C24.8746 21.8183 26.3409 21.9066 28.0192 22.0303C28.2666 22.048 28.5139 22.048 28.7789 22.0656C29.0262 22.0656 29.2029 21.9596 29.2912 21.8006C29.3619 21.677 29.5032 21.412 29.5032 21.412C29.5562 21.3236 29.8566 20.67 29.9626 20.4756C24.3622 20.2283 18.9916 17.7726 14.2039 15.0343C11.6423 13.5503 8.92158 12.0133 6.92525 9.78732C5.54725 8.25032 4.41659 6.13032 4.73459 4.06332C4.94659 3.16232 5.72392 2.19065 6.81925 1.80199Z" fill="white"/>
</mask>
<g mask="url(#mask3_66_1797)">
<path d="M29.9448 1.80199H3.00317V22.048H29.9448V1.80199Z" fill="url(#paint3_linear_66_1797)"/>
</g>
<mask id="mask4_66_1797" style="mask-type:luminance" maskUnits="userSpaceOnUse" x="5" y="5" width="27" height="17">
<path d="M5.21167 7.17268C5.618 8.12668 6.23634 9.02768 6.90767 9.76967C7.19034 10.0877 7.526 10.4233 7.80867 10.6707C16.0413 9.76968 26.0407 12.7907 29.1147 21.9597C29.203 21.9067 29.2737 21.836 29.309 21.7653C30.5457 19.5217 31.27 16.9423 31.27 14.204C31.27 14.151 31.27 14.098 31.27 14.0627C31.2523 13.727 30.9873 13.1263 30.528 12.561C26.818 8.42701 20.1223 5.24701 13.4973 5.24701C10.6353 5.24701 7.80867 5.83001 5.21167 7.17268Z" fill="white"/>
</mask>
<g mask="url(#mask4_66_1797)">
<path d="M31.2523 5.24701H5.21167V21.9773H31.2523V5.24701Z" fill="url(#paint4_linear_66_1797)"/>
</g>
<path d="M44.4413 26.0937C44.4413 26.5 44.459 26.9063 44.5296 27.242H43.7346L43.664 26.6413H43.6286C43.3636 27.0123 42.8513 27.348 42.1623 27.348C41.1906 27.348 40.7136 26.6767 40.7136 25.9877C40.7136 24.8393 41.7383 24.2033 43.5756 24.221V24.115C43.5756 23.7263 43.4696 23.0197 42.498 23.0197C42.0563 23.0197 41.597 23.161 41.2613 23.373L41.067 22.8077C41.4556 22.5603 42.0386 22.3837 42.6393 22.3837C44.088 22.3837 44.4413 23.373 44.4413 24.327V26.0937ZM43.611 24.8217C42.657 24.804 41.597 24.963 41.597 25.8993C41.597 26.4647 41.968 26.7297 42.4096 26.7297C43.028 26.7297 43.4166 26.341 43.558 25.9347C43.5933 25.8463 43.611 25.7403 43.611 25.652V24.8217Z" fill="white"/>
<path d="M46.7381 21.147C46.7557 21.4473 46.5261 21.677 46.1904 21.677C45.8901 21.677 45.6604 21.4297 45.6604 21.147C45.6604 20.8467 45.8901 20.5993 46.2081 20.5993C46.5261 20.5993 46.7381 20.829 46.7381 21.147ZM45.7664 22.472H46.6321V27.242H45.7664V22.472Z" fill="white"/>
<path d="M48.1867 23.956C48.1867 23.3907 48.169 22.9137 48.1514 22.472H48.911L48.9464 23.4083H48.9817C49.1937 22.7723 49.7237 22.366 50.3067 22.366C50.4127 22.366 50.4834 22.3837 50.554 22.4013V23.214C50.4657 23.1963 50.3774 23.1787 50.2537 23.1787C49.6354 23.1787 49.2114 23.638 49.0877 24.2917C49.07 24.4153 49.0524 24.5567 49.0524 24.698V27.242H48.1867V23.956Z" fill="white"/>
<path d="M51.508 24.0443C51.508 23.426 51.4903 22.949 51.4727 22.4897H52.25L52.2853 23.3023H52.303C52.6563 22.7193 53.2217 22.3837 53.999 22.3837C55.1473 22.3837 56.013 23.3553 56.013 24.804C56.013 26.5177 54.9707 27.3657 53.84 27.3657C53.204 27.3657 52.6563 27.083 52.3737 26.6237H52.356V29.2207H51.4903V24.0443H51.508ZM52.356 25.2987C52.356 25.4223 52.3737 25.546 52.3913 25.652C52.5503 26.2527 53.0627 26.659 53.6987 26.659C54.6173 26.659 55.1473 25.917 55.1473 24.8217C55.1473 23.8677 54.6527 23.055 53.734 23.055C53.151 23.055 52.5857 23.479 52.4267 24.1327C52.3913 24.2387 52.3737 24.3623 52.3737 24.486V25.2987H52.356Z" fill="white"/>
<path d="M61.3131 24.8217C61.3131 26.5883 60.0941 27.348 58.9457 27.348C57.6561 27.348 56.6667 26.4117 56.6667 24.8923C56.6667 23.3023 57.7091 22.366 59.0341 22.366C60.3944 22.366 61.3131 23.373 61.3131 24.8217ZM57.5324 24.8747C57.5324 25.917 58.1331 26.712 58.9811 26.712C59.8114 26.712 60.4297 25.9347 60.4297 24.857C60.4297 24.0443 60.0234 23.0373 58.9987 23.0373C57.9741 23.0197 57.5324 23.9737 57.5324 24.8747Z" fill="white"/>
<path d="M62.267 23.956C62.267 23.3907 62.2494 22.9137 62.2317 22.472H62.9914L63.0267 23.4083H63.062C63.274 22.7723 63.804 22.366 64.387 22.366C64.493 22.366 64.5637 22.3837 64.6344 22.4013V23.214C64.546 23.1963 64.4577 23.1787 64.334 23.1787C63.7157 23.1787 63.2917 23.638 63.168 24.2917C63.1504 24.4153 63.1327 24.5567 63.1327 24.698V27.242H62.2847V23.956H62.267Z" fill="white"/>
<path d="M67.0016 21.3413V22.4897H68.2383V23.1433H67.0016V25.7227C67.0016 26.3057 67.1783 26.6413 67.6553 26.6413C67.885 26.6413 68.0263 26.6237 68.15 26.5883L68.1853 27.242C68.0263 27.3127 67.7613 27.3657 67.4256 27.3657C67.0193 27.3657 66.7013 27.2243 66.4893 26.9947C66.242 26.7473 66.1536 26.3233 66.1536 25.758V23.161H65.4116V22.5073H66.1536V21.624L67.0016 21.3413Z" fill="white"/>
<path d="M139.223 1.76668C138.34 2.40267 137.403 2.98568 136.396 3.46268C136.237 3.53334 136.167 3.72767 136.167 3.86901V16.4123H139.665V2.06701C139.682 1.36034 139.223 1.76668 139.223 1.76668Z" fill="white"/>
<path d="M53.681 10.0523L53.575 10.2113C52.0733 12.667 50.4127 13.7093 48.0983 13.7093C44.8477 13.7093 42.5333 11.4833 42.5157 8.39166C42.5157 5.28233 44.8477 3.05633 48.0983 3.03866C50.2713 3.03866 51.932 4.028 53.1333 6.00666L53.2393 6.16566L56.172 4.27533L56.0483 4.11633C54.0697 1.39566 51.3667 0 48.0983 0C42.8513 0.0176667 39.0177 3.53333 39 8.37399C39.0177 13.197 42.8513 16.7127 48.0983 16.7127H48.116C51.667 16.7127 54.5467 15.0873 56.384 12.0487L56.4723 11.9073L53.681 10.0523Z" fill="white"/>
<path d="M70.747 0.353333V6.16566H70.7117H62.6734H62.6557V6.14799V0.353333H59.1577V16.377H62.6557V9.16899H70.747V16.377H74.192V0.353333H70.747Z" fill="white"/>
<path d="M95.0564 16.0943L86.9121 0.353333H84.4034L76.2061 16.3593H79.8277L81.8594 12.4197V12.402H89.4914V12.4197L91.576 16.3593H95.1977L95.0564 16.0943ZM85.6577 5.01733L85.6754 5.035L87.9367 9.34566L87.9544 9.381H83.4141L83.4317 9.34566L85.6577 5.035V5.01733Z" fill="white"/>
<path d="M108.748 0.371002V10.2467L108.713 10.1937L99.2964 0.371002H97.1941V16.377H100.657V6.48366L100.71 6.53666L110.144 16.377H112.211V0.371002H108.748Z" fill="white"/>
<path d="M124.648 10.441H129.065V10.4763V11.5363C127.916 13.0203 126.432 13.727 124.489 13.727C121.238 13.727 118.924 11.501 118.924 8.40933C118.924 5.29999 121.256 3.07399 124.489 3.07399C126.662 3.07399 128.323 4.06332 129.524 6.04199L129.612 6.20099L132.545 4.32833L132.439 4.16933C130.46 1.44866 127.757 0.0529938 124.489 0.0529938C119.242 0.0706604 115.408 3.58632 115.391 8.42699C115.391 13.25 119.242 16.7657 124.489 16.7657C127.934 16.7657 130.725 15.2993 132.51 12.5433L132.545 12.4903V7.43766H124.666V10.441H124.648Z" fill="white"/>
<path d="M71.2945 26.4647C71.5772 26.6237 72.0365 26.8003 72.4782 26.8003C73.1142 26.8003 73.4145 26.4823 73.4145 26.076C73.4145 25.652 73.1672 25.4223 72.5135 25.175C71.6302 24.857 71.2062 24.38 71.2062 23.7793C71.2062 22.9843 71.8599 22.3483 72.9022 22.3483C73.3969 22.3483 73.8385 22.472 74.1035 22.6487L73.8915 23.2847C73.6972 23.1787 73.3439 23.002 72.8845 23.002C72.3545 23.002 72.0719 23.3023 72.0719 23.6733C72.0719 24.0797 72.3545 24.274 72.9905 24.5213C73.8385 24.8393 74.2802 25.2633 74.2802 26.0053C74.2802 26.871 73.5912 27.4893 72.4605 27.4893C71.9305 27.4893 71.4182 27.348 71.0825 27.136L71.2945 26.4647Z" fill="white"/>
<path d="M75.7819 21.5533C75.4462 21.5533 75.2166 21.2883 75.2166 20.9703C75.2166 20.6523 75.4462 20.405 75.7996 20.405C76.1352 20.405 76.3649 20.6523 76.3649 20.9703C76.3649 21.306 76.1352 21.5533 75.7819 21.5533ZM75.3579 22.472H76.2589V27.3833H75.3579V22.472Z" fill="white"/>
<path d="M77.6369 23.797C77.6369 23.2847 77.6192 22.8783 77.6016 22.472H78.3966L78.4496 23.267H78.4672C78.7146 22.8077 79.2799 22.3483 80.0926 22.3483C80.7639 22.3483 81.8239 22.7547 81.8239 24.433V27.3657H80.9229V24.539C80.9229 23.744 80.6226 23.0727 79.7922 23.0727C79.2092 23.0727 78.7499 23.4967 78.5909 23.9913C78.5556 24.0973 78.5379 24.2563 78.5379 24.3977V27.3657H77.6369V23.797Z" fill="white"/>
<path d="M87.3889 26.659C87.3889 27.7897 87.1592 28.4787 86.6822 28.9203C86.1875 29.362 85.4985 29.5033 84.8802 29.5033C84.2972 29.5033 83.6435 29.362 83.2549 29.097L83.4845 28.408C83.8025 28.62 84.3149 28.7967 84.9332 28.7967C85.8519 28.7967 86.5232 28.3197 86.5232 27.0653V26.5353H86.5055C86.2405 26.9947 85.7105 27.3657 84.9509 27.3657C83.7319 27.3657 82.8662 26.3233 82.8662 24.963C82.8662 23.3023 83.9439 22.366 85.0922 22.366C85.9402 22.366 86.3995 22.8077 86.6292 23.214H86.6469L86.6822 22.4897H87.4772C87.4419 22.843 87.4419 23.2317 87.4419 23.8323V26.659H87.3889ZM86.4879 24.3977C86.4879 24.2563 86.4702 24.1327 86.4349 24.009C86.2759 23.479 85.8519 23.055 85.1805 23.055C84.3325 23.055 83.7142 23.7793 83.7142 24.9277C83.7142 25.8817 84.2089 26.6943 85.1629 26.6943C85.7105 26.6943 86.2229 26.3587 86.3995 25.7757C86.4525 25.6343 86.4702 25.4577 86.4702 25.2987V24.3977H86.4879Z" fill="white"/>
<path d="M92.2298 26.1997C92.2298 26.6237 92.2474 27.0477 92.3004 27.3833H91.5054L91.4171 26.765H91.3817C91.1168 27.1537 90.5868 27.4893 89.8801 27.4893C88.8908 27.4893 88.3784 26.7827 88.3784 26.076C88.3784 24.8923 89.4384 24.2387 91.3288 24.2563V24.1503C91.3288 23.744 91.2228 23.002 90.2158 23.0197C89.7564 23.0197 89.2794 23.161 88.9261 23.3907L88.7318 22.79C89.1381 22.5427 89.7388 22.366 90.3571 22.366C91.8764 22.366 92.2298 23.3907 92.2298 24.38V26.1997ZM91.3641 24.8747C90.3924 24.857 89.2794 25.0337 89.2794 25.9877C89.2794 26.5707 89.6681 26.8357 90.1098 26.8357C90.7634 26.8357 91.1698 26.4293 91.3111 26.023C91.3464 25.9347 91.3464 25.8287 91.3464 25.7403V24.8747H91.3641Z" fill="white"/>
<path d="M93.59 24.062C93.59 23.426 93.5724 22.9313 93.5547 22.4543H94.3497L94.4027 23.3023H94.4204C94.7737 22.7017 95.3567 22.3483 96.1517 22.3483C97.353 22.3483 98.2364 23.3553 98.2364 24.8393C98.2364 26.606 97.1587 27.4717 96.0104 27.4717C95.3567 27.4717 94.7914 27.189 94.491 26.6943H94.4734V29.362H93.5724V24.062H93.59ZM94.4734 25.3693C94.4734 25.493 94.491 25.6167 94.5087 25.7403C94.6677 26.3587 95.2154 26.7827 95.8337 26.7827C96.77 26.7827 97.3177 26.0053 97.3177 24.8923C97.3177 23.903 96.8054 23.0727 95.869 23.0727C95.2507 23.0727 94.6854 23.4967 94.5087 24.168C94.491 24.2917 94.4557 24.4153 94.4557 24.539V25.3693H94.4734Z" fill="white"/>
<path d="M101.275 27.4893C99.95 27.4893 98.9253 26.5177 98.9253 24.963C98.9253 23.32 100.003 22.366 101.363 22.366C102.777 22.366 103.731 23.3907 103.731 24.8747C103.731 26.6943 102.459 27.4893 101.275 27.4893ZM101.31 26.818C102.158 26.818 102.794 26.023 102.794 24.8923C102.794 24.062 102.37 23.0197 101.328 23.0197C100.286 23.0197 99.8263 23.9913 99.8263 24.9277C99.8263 26.0053 100.445 26.818 101.31 26.818Z" fill="white"/>
<path d="M104.773 23.9913C104.773 23.4083 104.755 22.9137 104.738 22.4543H105.515L105.55 23.426H105.586C105.815 22.7723 106.363 22.3483 106.946 22.3483C107.034 22.3483 107.105 22.366 107.193 22.3837V23.214C107.087 23.1963 106.999 23.1963 106.875 23.1963C106.239 23.1963 105.798 23.6733 105.674 24.327C105.656 24.4507 105.639 24.592 105.639 24.751V27.3657H104.738L104.773 23.9913Z" fill="white"/>
<path d="M108.448 25.069C108.465 26.2703 109.225 26.7827 110.126 26.7827C110.762 26.7827 111.168 26.6767 111.486 26.5353L111.645 27.1713C111.327 27.3127 110.78 27.4893 110.002 27.4893C108.501 27.4893 107.582 26.4823 107.582 25.016C107.582 23.532 108.465 22.366 109.896 22.366C111.504 22.366 111.91 23.7793 111.91 24.6803C111.91 24.857 111.893 24.9983 111.875 25.1043L108.448 25.069ZM111.062 24.433C111.08 23.8677 110.833 22.9843 109.843 22.9843C108.925 22.9843 108.536 23.8147 108.465 24.433H111.062Z" fill="white"/>
<defs>
<linearGradient id="paint0_linear_66_1797" x1="4.36964" y1="13.9793" x2="25.9491" y2="13.9793" gradientUnits="userSpaceOnUse">
<stop stop-color="#E6E1DB"/>
<stop offset="0.3846" stop-color="#E6E1DB"/>
<stop offset="1" stop-color="#715F4E"/>
</linearGradient>
<linearGradient id="paint1_linear_66_1797" x1="20.7868" y1="22.8739" x2="-0.91822" y2="22.8739" gradientUnits="userSpaceOnUse">
<stop stop-color="#FCCF00"/>
<stop offset="0.6209" stop-color="#E50020"/>
<stop offset="1" stop-color="#80167D"/>
</linearGradient>
<linearGradient id="paint2_linear_66_1797" x1="0.0114655" y1="4.40334" x2="30.7567" y2="4.40334" gradientUnits="userSpaceOnUse">
<stop stop-color="#FCCF00"/>
<stop offset="0.6209" stop-color="#E50020"/>
<stop offset="1" stop-color="#80167D"/>
</linearGradient>
<linearGradient id="paint3_linear_66_1797" x1="3.69016" y1="11.9354" x2="29.9553" y2="11.9354" gradientUnits="userSpaceOnUse">
<stop stop-color="#E6E1DB"/>
<stop offset="0.3846" stop-color="#E6E1DB"/>
<stop offset="1" stop-color="#715F4E"/>
</linearGradient>
<linearGradient id="paint4_linear_66_1797" x1="0.0638361" y1="13.6082" x2="31.068" y2="13.6082" gradientUnits="userSpaceOnUse">
<stop stop-color="#FCCF00"/>
<stop offset="0.6209" stop-color="#E50020"/>
<stop offset="1" stop-color="#80167D"/>
</linearGradient>
</defs>
</svg>
